<?xml version="1.0" encoding="utf-8"?>
<!-- Generator: Adobe Illustrator 16.0.0, SVG Export Plug-In . SVG Version: 6.00 Build 0)  -->
<!DOCTYPE svg PUBLIC "-//W3C//DTD SVG 1.1//EN" "http://www.w3.org/Graphics/SVG/1.1/DTD/svg11.dtd">
<svg version="1.1" id="Capa_1" xmlns="http://www.w3.org/2000/svg" xmlns:xlink="http://www.w3.org/1999/xlink" x="0px" y="0px"
	 width="400px" height="100px" viewBox="56 206 400 100" enable-background="new 56 206 400 100" xml:space="preserve">
<g>
	<path fill="#00008F" d="M452.833,256c0,26.09-21.15,47.24-47.24,47.24H106.407c-26.09,0-47.24-21.15-47.24-47.24l0,0
		c0-26.09,21.15-47.24,47.24-47.24h299.186C431.683,208.76,452.833,229.91,452.833,256L452.833,256z"/>
	<path fill="#FFFFFF" d="M113.398,252.138c0-1.327-1.077-2.403-2.404-2.403c-1.328,0-2.404,1.076-2.404,2.403v19.232
		c0,1.327,1.077,2.403,2.404,2.403c1.327,0,2.404-1.076,2.404-2.403V252.138z M110.994,220.888
		c-19.029,0-34.456,15.427-34.456,34.456S91.965,289.8,110.994,289.8s34.456-15.427,34.456-34.456S130.023,220.888,110.994,220.888z
		 M81.346,255.344c0-16.374,13.274-29.648,29.648-29.648s29.647,13.274,29.647,29.648s-13.273,29.647-29.647,29.647
		S81.346,271.718,81.346,255.344z M114.199,242.522c0,1.771-1.435,3.205-3.205,3.205s-3.205-1.434-3.205-3.205
		c0-1.77,1.435-3.204,3.205-3.204S114.199,240.753,114.199,242.522z"/>
	<g>
		<path fill="#FFFFFF" d="M169.946,237.158c0-10.172,6.742-14.352,14.351-14.352c3.035,0,5.796,0.434,7.491,0.907l0.434,8.161
			h-1.223c-1.143-2.444-2.246-4.259-3.153-5.56c-1.025-1.34-2.05-1.854-3.982-1.854c-4.612,0-6.348,3.352-6.348,11.907
			c0,10.251,2.012,13.05,6.348,13.05c2.287,0,3.353-0.63,4.494-2.208c1.064-1.498,1.972-3.193,2.997-5.638h1.143l-0.434,7.886
			c-1.853,0.788-4.81,1.616-8.634,1.616C175.624,251.075,169.946,246.502,169.946,237.158z"/>
		<path fill="#FFFFFF" d="M194.629,240.391c0-7.57,5.362-10.803,10.686-10.803c5.717,0,10.723,3.43,10.723,10.605
			c0,7.569-5.282,10.882-10.723,10.882C199.597,251.075,194.629,247.605,194.629,240.391z M209.415,240.588
			c0-7.964-1.539-9.462-4.219-9.462c-2.483,0-3.941,1.813-3.941,8.594c0,8.083,1.299,9.817,4.179,9.817
			C207.798,249.537,209.415,248.157,209.415,240.588z"/>
		<path fill="#FFFFFF" d="M217.222,249.537l1.025-0.275c1.301-0.355,1.459-0.552,1.459-2.247v-12.262
			c0-1.695-0.198-1.813-1.301-2.563l-1.301-0.868v-0.788l8.319-0.946l0.433,0.276l-0.078,2.523h0.158
			c2.089-1.499,4.69-2.8,7.568-2.8c3.352,0,5.165,1.734,5.165,5.283v12.144c0,1.734,0.158,1.932,1.419,2.247l1.026,0.275v1.065h-11
			v-1.065l0.946-0.236c1.182-0.315,1.301-0.434,1.301-2.286v-10.605c0-2.406-0.867-3.154-2.721-3.154
			c-1.38,0-2.799,0.315-3.667,0.512v13.248c0,1.892,0.119,1.971,1.302,2.286l0.946,0.236v1.065h-11V249.537z"/>
		<path fill="#FFFFFF" d="M243.996,245.635v-13.169h-2.485v-0.945c3.076-1.184,5.441-3.471,6.544-6.624h2.248v5.243h5.244
			l-0.513,2.326h-4.73v12.774c0,1.971,0.591,2.76,2.562,2.76c0.948,0,2.13-0.197,2.84-0.355v1.104
			c-0.948,0.867-2.918,2.326-6.23,2.326C245.928,251.075,243.996,249.498,243.996,245.635z"/>
		<path fill="#FFFFFF" d="M256.771,245.871c0-3.47,2.641-5.007,7.097-6.072l3.981-0.985v-3.43c0-3.272-0.631-4.258-2.799-4.258
			c-1.183,0-1.577,0.314-1.656,1.419c-0.197,2.483-1.024,3.47-3.075,3.47c-1.734,0-2.682-0.907-2.682-2.444
			c0-2.523,3.234-3.982,8.714-3.982c4.928,0,7.807,1.538,7.807,5.401v10.921c0,1.459,0.158,2.05,0.907,2.444
			c0.512,0.276,1.301,0.355,1.852,0.395v0.946c-0.748,0.591-2.324,1.38-4.612,1.38c-2.286,0-3.666-0.867-4.1-2.404h-0.197
			c-0.985,1.261-2.759,2.404-5.323,2.404C258.979,251.075,256.771,249.183,256.771,245.871z M262.289,227.144l5.165-4.652
			c0.671-0.631,1.382-0.946,2.09-0.946c1.223,0,2.13,1.183,2.13,2.365c0,0.907-0.514,1.893-1.813,2.208l-7.255,1.734
			L262.289,227.144z M267.849,247.133v-6.309l-1.813,0.157c-2.012,0.158-3.076,1.065-3.076,3.903c0,2.563,1.143,3.392,2.681,3.392
			C266.746,248.276,267.495,247.803,267.849,247.133z"/>
		<path fill="#FFFFFF" d="M277.825,240.43c0-8.239,6.467-10.842,11.987-10.842c3.903,0,6.269,1.262,6.269,3.667
			c0,1.616-1.104,2.76-2.8,2.76c-2.05,0-2.681-1.42-2.838-3.075c-0.197-1.499-0.435-1.734-1.736-1.734
			c-2.208,0-4.572,1.3-4.572,7.53c0,5.795,1.733,8.949,6.149,8.949c2.445,0,4.259-0.71,5.718-1.459v1.262
			c-1.144,1.419-4.022,3.588-8.279,3.588C281.336,251.075,277.825,246.896,277.825,240.43z"/>
		<path fill="#FFFFFF" d="M299.313,245.635v-13.169h-2.483v-0.945c3.076-1.184,5.442-3.471,6.545-6.624h2.247v5.243h5.244
			l-0.514,2.326h-4.73v12.774c0,1.971,0.592,2.76,2.563,2.76c0.946,0,2.129-0.197,2.839-0.355v1.104
			c-0.947,0.867-2.918,2.326-6.229,2.326C301.247,251.075,299.313,249.498,299.313,245.635z"/>
		<path fill="#FFFFFF" d="M312.09,245.871c0-3.47,2.641-5.007,7.096-6.072l3.981-0.985v-3.43c0-3.272-0.63-4.258-2.799-4.258
			c-1.183,0-1.576,0.314-1.655,1.419c-0.197,2.483-1.025,3.47-3.077,3.47c-1.732,0-2.68-0.907-2.68-2.444
			c0-2.523,3.233-3.982,8.714-3.982c4.928,0,7.806,1.538,7.806,5.401v10.921c0,1.459,0.158,2.05,0.906,2.444
			c0.513,0.276,1.302,0.355,1.854,0.395v0.946c-0.749,0.591-2.326,1.38-4.612,1.38s-3.668-0.867-4.1-2.404h-0.198
			c-0.985,1.261-2.76,2.404-5.323,2.404C314.297,251.075,312.09,249.183,312.09,245.871z M323.167,247.133v-6.309l-1.813,0.157
			c-2.011,0.158-3.074,1.065-3.074,3.903c0,2.563,1.143,3.392,2.681,3.392C322.064,248.276,322.813,247.803,323.167,247.133z"/>
		<path fill="#FFFFFF" d="M332.83,249.537l1.024-0.275c1.302-0.355,1.459-0.552,1.459-2.247v-12.262
			c0-1.695-0.197-1.813-1.301-2.563l-1.302-0.868v-0.788l8.318-0.946l0.435,0.276l-0.078,2.523h0.157c2.089-1.499,4.69-2.8,7.57-2.8
			c3.351,0,5.164,1.734,5.164,5.283v12.144c0,1.734,0.157,1.932,1.419,2.247l1.026,0.275v1.065h-11.001v-1.065l0.946-0.236
			c1.184-0.315,1.302-0.434,1.302-2.286v-10.605c0-2.406-0.868-3.154-2.72-3.154c-1.382,0-2.8,0.315-3.667,0.512v13.248
			c0,1.892,0.118,1.971,1.302,2.286l0.944,0.236v1.065H332.83V249.537z"/>
		<path fill="#FFFFFF" d="M357.671,240.391c0-7.57,5.361-10.803,10.685-10.803c5.717,0,10.723,3.43,10.723,10.605
			c0,7.569-5.282,10.882-10.723,10.882C362.639,251.075,357.671,247.605,357.671,240.391z M372.456,240.588
			c0-7.964-1.538-9.462-4.22-9.462c-2.482,0-3.941,1.813-3.941,8.594c0,8.083,1.3,9.817,4.179,9.817
			C370.839,249.537,372.456,248.157,372.456,240.588z"/>
		<path fill="#FFFFFF" d="M381.053,250.247l-0.276-6.15h1.104c0.827,1.577,1.616,2.721,2.563,3.903
			c0.788,0.985,1.735,1.498,3.43,1.498c1.893,0,3.272-0.985,3.272-2.8c0-1.813-1.183-2.641-4.69-3.98
			c-3.549-1.342-5.679-3.076-5.679-6.507c0-3.745,2.997-6.623,8.398-6.623c2.247,0,4.259,0.315,5.4,0.749l0.237,5.362h-1.064
			c-0.789-1.419-1.459-2.405-2.248-3.312c-0.906-0.986-1.615-1.262-3.035-1.262c-1.655,0-2.799,0.945-2.799,2.563
			c0,1.498,0.748,2.444,3.903,3.627c4.729,1.734,6.544,3.627,6.544,6.702c0,4.14-3.114,7.058-8.87,7.058
			C384.956,251.075,382.63,250.72,381.053,250.247z"/>
		<path fill="#FFFFFF" d="M171.995,281.719v4.14h-2.07v-17.443h1.717l0.177,1.413h0.076c1.11-0.934,2.474-1.717,3.913-1.717
			c3.155,0,4.847,2.449,4.847,6.261c0,4.166-2.5,6.614-5.302,6.614c-1.136,0-2.272-0.53-3.408-1.413L171.995,281.719z
			 M174.999,279.245c2.02,0,3.509-1.844,3.509-4.873c0-2.7-0.909-4.519-3.231-4.519c-1.035,0-2.07,0.58-3.281,1.666v6.438
			C173.105,278.892,174.191,279.245,174.999,279.245z"/>
		<path fill="#FFFFFF" d="M190.522,272.907c0-1.564-0.531-3.079-2.525-3.079c-1.439,0-2.701,0.656-3.66,1.313l-0.833-1.439
			c1.136-0.732,2.853-1.591,4.822-1.591c3.003,0,4.266,1.995,4.266,5.05v7.521h-1.716l-0.177-1.464h-0.051
			c-1.186,0.96-2.55,1.768-4.064,1.768c-2.069,0-3.61-1.287-3.61-3.483C182.974,274.827,185.297,273.489,190.522,272.907z
			 M187.164,279.32c1.187,0,2.171-0.581,3.358-1.641v-3.408c-4.115,0.505-5.503,1.515-5.503,3.08
			C185.019,278.739,185.953,279.32,187.164,279.32z"/>
		<path fill="#FFFFFF" d="M196.504,268.415h1.717l0.177,2.222h0.075c0.833-1.541,2.096-2.525,3.484-2.525
			c0.53,0,0.909,0.076,1.313,0.253l-0.404,1.817c-0.405-0.127-0.682-0.201-1.187-0.201c-1.035,0-2.272,0.757-3.104,2.827v7.875
			h-2.07V268.415z"/>
		<path fill="#FFFFFF" d="M211.573,272.907c0-1.564-0.531-3.079-2.525-3.079c-1.438,0-2.701,0.656-3.66,1.313l-0.833-1.439
			c1.136-0.732,2.853-1.591,4.822-1.591c3.003,0,4.267,1.995,4.267,5.05v7.521h-1.717l-0.177-1.464h-0.051
			c-1.186,0.96-2.55,1.768-4.064,1.768c-2.069,0-3.61-1.287-3.61-3.483C204.025,274.827,206.348,273.489,211.573,272.907z
			 M208.216,279.32c1.186,0,2.17-0.581,3.357-1.641v-3.408c-4.114,0.505-5.503,1.515-5.503,3.08
			C206.07,278.739,207.004,279.32,208.216,279.32z"/>
		<path fill="#FFFFFF" d="M222.654,268.415h1.716l0.177,1.767h0.075c1.061-1.161,2.348-2.07,3.813-2.07
			c1.868,0,2.878,0.885,3.382,2.349c1.288-1.389,2.55-2.349,4.04-2.349c2.524,0,3.736,1.667,3.736,4.796v7.775h-2.07v-7.496
			c0-2.297-0.731-3.282-2.272-3.282c-0.959,0-1.943,0.632-3.08,1.894v8.885h-2.07v-7.496c0-2.297-0.732-3.282-2.297-3.282
			c-0.909,0-1.943,0.632-3.079,1.894v8.885h-2.07V268.415z"/>
		<path fill="#FFFFFF" d="M250.521,272.907c0-1.564-0.531-3.079-2.525-3.079c-1.439,0-2.701,0.656-3.66,1.313l-0.833-1.439
			c1.136-0.732,2.853-1.591,4.822-1.591c3.003,0,4.266,1.995,4.266,5.05v7.521h-1.716l-0.177-1.464h-0.051
			c-1.186,0.96-2.55,1.768-4.064,1.768c-2.069,0-3.61-1.287-3.61-3.483C242.972,274.827,245.295,273.489,250.521,272.907z
			 M247.164,279.32c1.186,0,2.17-0.581,3.357-1.641v-3.408c-4.115,0.505-5.503,1.515-5.503,3.08
			C245.018,278.739,245.952,279.32,247.164,279.32z M248.249,266.219h-1.59l2.272-3.56h2.171L248.249,266.219z"/>
		<path fill="#FFFFFF" d="M256.174,277.907c1.061,0.857,2.146,1.463,3.61,1.463c1.615,0,2.424-0.857,2.424-1.918
			c0-1.263-1.465-1.817-2.803-2.322c-1.741-0.631-3.66-1.465-3.66-3.534c0-1.97,1.564-3.484,4.216-3.484
			c1.539,0,2.877,0.632,3.812,1.39l-0.984,1.312c-0.833-0.631-1.717-1.085-2.803-1.085c-1.539,0-2.246,0.833-2.246,1.768
			c0,1.136,1.338,1.59,2.726,2.12c1.768,0.656,3.737,1.388,3.737,3.711c0,1.994-1.591,3.66-4.493,3.66
			c-1.742,0-3.408-0.732-4.57-1.691L256.174,277.907z"/>
		<path fill="#FFFFFF" d="M271.799,264.553c0-0.809,0.63-1.339,1.438-1.339c0.808,0,1.438,0.53,1.438,1.339
			c0,0.782-0.631,1.338-1.438,1.338C272.429,265.891,271.799,265.335,271.799,264.553z M272.177,268.415h2.07v12.268h-2.07V268.415z
			"/>
		<path fill="#FFFFFF" d="M278.386,268.415h1.717l0.177,1.767h0.075c1.162-1.161,2.424-2.07,4.115-2.07
			c2.575,0,3.735,1.667,3.735,4.796v7.775h-2.07v-7.496c0-2.297-0.706-3.282-2.321-3.282c-1.262,0-2.12,0.656-3.357,1.894v8.885
			h-2.07V268.415z"/>
		<path fill="#FFFFFF" d="M297.722,264.401c-0.455-0.202-0.935-0.303-1.39-0.303c-1.16,0-1.716,0.807-1.716,2.372v1.944h2.601v1.691
			h-2.601v10.576h-2.069v-10.576h-1.667v-1.566l1.667-0.125v-1.944c0-2.499,1.135-4.064,3.584-4.064
			c0.757,0,1.489,0.178,2.045,0.404L297.722,264.401z"/>
		<path fill="#FFFFFF" d="M304.082,268.111c3.004,0,5.68,2.349,5.68,6.463c0,4.064-2.676,6.412-5.68,6.412
			c-3.005,0-5.681-2.348-5.681-6.412C298.401,270.46,301.077,268.111,304.082,268.111z M304.082,279.271
			c2.12,0,3.534-1.894,3.534-4.696c0-2.827-1.414-4.746-3.534-4.746c-2.096,0-3.534,1.919-3.534,4.746
			C300.548,277.377,301.986,279.271,304.082,279.271z"/>
		<path fill="#FFFFFF" d="M312.992,268.415h1.717l0.177,2.222h0.076c0.832-1.541,2.095-2.525,3.482-2.525
			c0.53,0,0.909,0.076,1.313,0.253l-0.404,1.817c-0.404-0.127-0.682-0.201-1.187-0.201c-1.035,0-2.272,0.757-3.104,2.827v7.875
			h-2.07V268.415z"/>
		<path fill="#FFFFFF" d="M321.751,268.415h1.716l0.178,1.767h0.074c1.062-1.161,2.349-2.07,3.813-2.07
			c1.868,0,2.878,0.885,3.383,2.349c1.288-1.389,2.55-2.349,4.039-2.349c2.524,0,3.736,1.667,3.736,4.796v7.775h-2.07v-7.496
			c0-2.297-0.731-3.282-2.272-3.282c-0.959,0-1.943,0.632-3.079,1.894v8.885h-2.07v-7.496c0-2.297-0.732-3.282-2.297-3.282
			c-0.909,0-1.943,0.632-3.079,1.894v8.885h-2.07V268.415z"/>
		<path fill="#FFFFFF" d="M349.618,272.907c0-1.564-0.531-3.079-2.525-3.079c-1.438,0-2.7,0.656-3.66,1.313l-0.833-1.439
			c1.136-0.732,2.853-1.591,4.822-1.591c3.003,0,4.266,1.995,4.266,5.05v7.521h-1.716l-0.177-1.464h-0.052
			c-1.186,0.96-2.55,1.768-4.064,1.768c-2.068,0-3.609-1.287-3.609-3.483C342.069,274.827,344.393,273.489,349.618,272.907z
			 M346.261,279.32c1.186,0,2.17-0.581,3.357-1.641v-3.408c-4.115,0.505-5.504,1.515-5.504,3.08
			C344.114,278.739,345.049,279.32,346.261,279.32z"/>
		<path fill="#FFFFFF" d="M360.597,268.111c1.615,0,2.751,0.683,3.585,1.465l-1.035,1.338c-0.731-0.631-1.489-1.086-2.475-1.086
			c-2.221,0-3.836,1.919-3.836,4.746c0,2.803,1.539,4.696,3.786,4.696c1.161,0,2.146-0.581,2.878-1.238l0.934,1.364
			c-1.11,0.984-2.524,1.59-3.988,1.59c-3.256,0-5.756-2.348-5.756-6.412C354.689,270.46,357.441,268.111,360.597,268.111z"/>
		<path fill="#FFFFFF" d="M366.73,264.553c0-0.809,0.63-1.339,1.438-1.339c0.808,0,1.438,0.53,1.438,1.339
			c0,0.782-0.631,1.338-1.438,1.338C367.36,265.891,366.73,265.335,366.73,264.553z M367.108,268.415h2.07v12.268h-2.07V268.415z"/>
		<path fill="#FFFFFF" d="M378.088,268.111c3.005,0,5.681,2.349,5.681,6.463c0,4.064-2.676,6.412-5.681,6.412
			c-3.004,0-5.68-2.348-5.68-6.412C372.408,270.46,375.084,268.111,378.088,268.111z M378.088,279.271
			c2.121,0,3.534-1.894,3.534-4.696c0-2.827-1.413-4.746-3.534-4.746c-2.095,0-3.533,1.919-3.533,4.746
			C374.555,277.377,375.993,279.271,378.088,279.271z M378.037,266.219h-1.589l2.271-3.56h2.17L378.037,266.219z"/>
		<path fill="#FFFFFF" d="M386.999,268.415h1.716l0.177,1.767h0.076c1.161-1.161,2.423-2.07,4.114-2.07
			c2.575,0,3.736,1.667,3.736,4.796v7.775h-2.07v-7.496c0-2.297-0.706-3.282-2.322-3.282c-1.262,0-2.12,0.656-3.356,1.894v8.885
			h-2.07V268.415z"/>
	</g>
</g>
</svg>
